Coordinates
version=1
nRows=19
nColumns=24
inDegrees=yes

Units are S.I. units (second, meters, Newtons, ...)
Angles are in degrees.

endheader
time	pelvis_tilt	pelvis_list	pelvis_rotation	pelvis_tx	pelvis_ty	pelvis_tz	hip_flexion_r	hip_adduction_r	hip_rotation_r	knee_angle_r	ankle_angle_r	subtalar_angle_r	mtp_angle_r	hip_flexion_l	hip_adduction_l	hip_rotation_l	knee_angle_l	ankle_angle_l	subtalar_angle_l	mtp_angle_l	lumbar_extension	lumbar_bending	lumbar_rotation
      5.89000000	     -8.32463676	      5.28439032	      3.79805077	     -1.49902811	     -0.00314679	     -0.32030794	     27.42294780	    -11.46924056	     -9.27683649	    -65.64968167	    -15.70491497	      3.97496187	     38.52666379	     11.78638686	     10.69105418	     15.06922149	    -12.38170574	      0.38418355	     -8.09046767	      1.64299727	      7.13974824	     -8.04843174	      1.07298804
      5.89500000	     -8.23672953	      5.04900837	      4.04454802	     -1.49436518	     -0.00259897	     -0.32086894	     27.92700278	    -11.31182347	     -9.56940318	    -65.18598301	    -15.02861886	      4.13730445	     38.75155222	     11.22669727	     10.46872750	     15.41905715	    -12.13269963	      0.58101554	     -8.08769643	      1.53544809	      6.95776110	     -7.82856690	      0.58837346
      5.90000000	     -8.18685287	      4.80042365	      4.21680841	     -1.48968328	     -0.00212154	     -0.32130585	     28.47965626	    -11.08878641	     -9.78093081	    -64.65752173	    -14.43754288	      4.23425299	     38.89598311	     10.70309135	     10.20227533	     15.69061191	    -11.85179366	      0.78383355	     -8.07088414	      1.50955325	      6.84003906	     -7.58641488	      0.20018541
      5.90500000	     -8.05787579	      4.61024966	      4.46693369	     -1.48509334	     -0.00161593	     -0.32185131	     28.90647706	    -10.96984062	    -10.05136347	    -64.07400873	    -13.78581433	      4.35440899	     38.99694545	     10.09787222	     10.00554382	     16.01181810	    -11.57980196	      0.94980220	     -8.01304547	      1.45126514	      6.59944454	     -7.41069955	     -0.32710947
      5.91000000	     -7.96599887	      4.40597470	      4.65078744	     -1.48046560	     -0.00117686	     -0.32229060	     29.37207854	    -10.78635916	    -10.24397006	    -63.42237964	    -13.21480177	      4.41837803	     39.00879023	      9.52604760	      9.76838451	     16.26341488	    -11.27831710	      1.12541973	     -7.94240781	      1.44091058	      6.42510403	     -7.20945539	     -0.74791530
      5.91500000	     -7.90500298	      4.21142282	      4.79861234	     -1.47584135	     -0.00086088	     -0.32267363	     29.86856432	    -10.59013949	    -10.39318031	    -62.72230287	    -12.68783562	      4.42703828	     38.99541275	      8.99456678	      9.53218391	     16.45329446	    -10.97945875	      1.33339119	     -7.87986407	      1.48903275	      6.29022299	     -7.01772853	     -1.09751415
      5.92000000	     -7.76607190	      4.04998688	      5.00481090	     -1.47126899	     -0.00047554	     -0.32310672	     30.23652609	    -10.44911837	    -10.57950669	    -61.95515554	    -12.14874977	      4.44603004	     38.85191362	      8.38161104	      9.32577748	     16.66732875	    -10.68218887	      1.49315655	     -7.72791729	      1.57489645	      6.04861634	     -6.85895604	     -1.56053321
      5.92500000	     -7.64121039	      3.89813696	      5.16958571	     -1.46667785	     -0.00018217	     -0.32346470	     30.61316963	    -10.28818613	    -10.71653672	    -61.14025963	    -11.64316191	      4.42628461	     38.60317575	      7.78524079	      9.11802822	     16.82910598	    -10.38061194	      1.66752777	     -7.60592962	      1.70609290	      5.83400057	     -6.70588629	     -1.95401239
      5.93000000	     -7.48654495	      3.77316283	      5.30196613	     -1.46206209	      0.00006278	     -0.32374646	     30.94358948	    -10.12907203	    -10.82242794	    -60.29423255	    -11.06492347	      4.41223291	     38.01811625	      7.15422230	      8.92369673	     16.94260822	    -10.06889588	      1.81843487	     -7.50537438	      1.96344573	      5.59295817	     -6.57723820	     -2.26230375
      5.93500000	     -7.40571776	      3.64737172	      5.48534931	     -1.45751801	      0.00018834	     -0.32407886	     31.32853385	     -9.99068253	    -10.92339670	    -59.37597913	    -10.65167780	      4.35948523	     37.70913008	      6.63225794	      8.74736152	     17.09932294	     -9.81199543	      1.99282143	     -7.38967089	      2.14853910	      5.41709910	     -6.46225210	     -2.69775178
      5.94000000	     -7.28405187	      3.53000342	      5.64997031	     -1.45292414	      0.00033515	     -0.32434645	     31.63587649	     -9.83828336	    -11.00341022	    -58.38899988	    -10.25434045	      4.28862365	     37.27017195	      6.06063524	      8.56599834	     17.24581117	     -9.54732147	      2.14424663	     -7.28249058	      2.33640422	      5.20755531	     -6.34996474	     -3.06595737
      5.94500000	     -7.16088328	      3.42965721	      5.81164939	     -1.44832647	      0.00041298	     -0.32459550	     31.92198996	     -9.70139335	    -11.07357742	    -57.36522841	     -9.85919771	      4.22674332	     36.69073950	      5.49300826	      8.40304976	     17.40088620	     -9.29672644	      2.30127101	     -7.21483726	      2.52848668	      4.99480907	     -6.25402435	     -3.43412602
      5.95000000	     -7.06794691	      3.33613055	      5.97265816	     -1.44369720	      0.00042591	     -0.32482770	     32.21358032	     -9.56848373	    -11.12115551	    -56.28539323	     -9.50612426	      4.17986765	     36.08624398	      4.96275393	      8.25104587	     17.57442073	     -9.06206815	      2.45181957	     -7.18242228	      2.67226305	      4.82735747	     -6.16542064	     -3.77841836
      5.95500000	     -6.94296315	      3.25758487	      6.14497087	     -1.43916396	      0.00041635	     -0.32497396	     32.45071693	     -9.43766755	    -11.15099819	    -55.16946425	     -9.12598711	      4.14429057	     35.28426920	      4.42757310	      8.11442332	     17.77660164	     -8.88097366	      2.59843329	     -7.20249521	      2.77770310	      4.58915847	     -6.10949250	     -4.16518542
      5.96000000	     -6.85723972	      3.17581222	      6.31883050	     -1.43456410	      0.00034196	     -0.32512476	     32.69723182	     -9.31190592	    -11.18042689	    -53.99818611	     -8.78265709	      4.14130599	     34.46073151	      3.93491838	      7.98050284	     18.01062947	     -8.71137107	      2.75488808	     -7.26097614	      2.80145599	      4.41442201	     -6.04828561	     -4.52796442
      5.96500000	     -6.78225971	      3.09470172	      6.49680396	     -1.42997656	      0.00021772	     -0.32528631	     32.92639303	     -9.18840630	    -11.19419034	    -52.76922951	     -8.48004772	      4.13362023	     33.68024722	      3.47446945	      7.85691418	     18.27889715	     -8.59106971	      2.93305606	     -7.35268608	      2.75151119	      4.25346234	     -5.98016050	     -4.88330267
      5.97000000	     -6.70858373	      3.03688648	      6.62948287	     -1.42532508	      0.00004846	     -0.32537981	     33.14295075	     -9.06745800	    -11.16026230	    -51.53939850	     -7.99562109	      4.32479747	     32.45606754	      3.00291471	      7.75754194	     18.55431968	     -8.46576932	      3.11360052	     -7.55110463	      2.46960100	      4.10298033	     -5.93297597	     -5.16671418
      5.97500000	     -6.75391575	      2.92633978	      6.79976956	     -1.42077042	     -0.00025366	     -0.32546818	     33.45187095	     -8.91136523	    -11.11417847	    -50.17529226	     -7.91697002	      4.29215260	     32.14940260	      2.72664433	      7.62175079	     18.78963862	     -8.43667202	      3.33356355	     -7.61489338	      2.46339916	      4.06978194	     -5.85101251	     -5.48340049
      5.98000000	     -6.61110545	      2.84756876	      7.05098607	     -1.41625147	     -0.00036396	     -0.32560126	     33.50085426	     -8.83202396	    -11.21822466	    -48.79307068	     -7.66607527	      4.25530766	     31.19682851	      2.22708700	      7.50220735	     19.24978264	     -8.39873051	      3.52779447	     -7.82160474	      2.16711133	      3.80657202	     -5.79899148	     -5.94760387
